<svg width="24" height="24" viewBox="0 0 24 24" fill="none" xmlns="http://www.w3.org/2000/svg">
<g id="check_box_24px">
<path id="icon/toggle/check_box_24px" fill-rule="evenodd" clip-rule="evenodd" d="M5 3H19C20.1 3 21 3.90002 21 5V19C21 20.1 20.1 21 19 21H5C3.90002 21 3 20.1 3 19V5C3 3.90002 3.90002 3 5 3ZM9.29993 16.29C9.68994 16.68 10.3199 16.68 10.71 16.29L18.2899 8.70001C18.6799 8.31 18.6799 7.67999 18.2899 7.28998C17.9 6.90002 17.27 6.90002 16.88 7.28998L10 14.17L7.12 11.29C6.72998 10.9 6.09998 10.9 5.70996 11.29C5.52271 11.4768 5.41748 11.7305 5.41748 11.995C5.41748 12.2595 5.52271 12.5132 5.70996 12.7L9.29993 16.29Z" fill="black" fill-opacity="0.54"/>
</g>
</svg>
