<svg width="24" height="24" viewBox="0 0 24 24" fill="none" xmlns="http://www.w3.org/2000/svg">
<g id="notifications_none_24px">
<path id="icon/social/notifications_none_24px" fill-rule="evenodd" clip-rule="evenodd" d="M19.2901 17.04L18.0001 15.75V10.75C18.0001 7.67999 16.3602 5.10999 13.5001 4.42999V3.75C13.5001 2.92001 12.8302 2.25 12.0001 2.25C11.1702 2.25 10.5001 2.92001 10.5001 3.75V4.42999C7.63011 5.10999 6.00011 7.67001 6.00011 10.75V15.75L4.71019 17.04C4.08019 17.67 4.52013 18.75 5.41014 18.75H18.5802C19.4802 18.75 19.9202 17.67 19.2901 17.04ZM8.00011 16.75V10.75C8.00011 8.26999 9.51012 6.25 12.0001 6.25C14.4901 6.25 16.0001 8.26999 16.0001 10.75V16.75H8.00011ZM14.0001 19.75C14.0001 20.85 13.1001 21.75 12.0001 21.75C10.8901 21.75 10.0001 20.85 10.0001 19.75H14.0001Z" fill="black" fill-opacity="0.54"/>
</g>
</svg>
