<svg width="24" height="24" viewBox="0 0 24 24" xmlns="http://www.w3.org/2000/svg"><g id="router_24px"><path id="icon/hardware/router_24px" fill-rule="evenodd" clip-rule="evenodd" d="M12.17 5.59C11.95 5.76001 11.64 5.73999 11.45 5.54999L11.4 5.5C11.17 5.26999 11.19 4.91 11.4301 4.70001C12.76 3.57001 14.38 3 16 3C17.6201 3 19.2401 3.57001 20.57 4.70001C20.8101 4.91 20.82 5.28 20.6 5.5L20.5601 5.54999C20.36 5.73999 20.05 5.76001 19.84 5.59C18.7 4.69 17.35 4.20001 16 4.20001C14.65 4.20001 13.3 4.69 12.17 5.59ZM13.11 7.10999C12.89 6.88998 12.9 6.50998 13.15 6.31C13.98 5.65997 14.99 5.29999 16 5.29999C17.01 5.29999 18.02 5.65997 18.85 6.29999C19.1 6.5 19.12 6.87 18.89 7.09998L18.85 7.13998C18.66 7.34 18.35 7.34998 18.13 7.17999C17.5 6.70999 16.75 6.5 16 6.5C15.25 6.5 14.5 6.70999 13.87 7.19C13.65 7.34998 13.35 7.34998 13.15 7.14999L13.11 7.10999ZM19 13H17V10C17 9.45001 16.55 9 16 9C15.45 9 15 9.45001 15 10V13H5C3.90002 13 3 13.9 3 15V19C3 20.1 3.90002 21 5 21H19C20.1 21 21 20.1 21 19V15C21 13.9 20.1 13 19 13ZM6 18H8V16H6V18ZM11.5 18H9.5V16H11.5V18ZM13 18H15V16H13V18Z" /></g></svg>
